{
  "accessors": [
    {
      "bufferView": 2,
      "componentType": 5126,
      "count": 84,
      "max": [
        57.995426177978516,
        -3.044677734375,
        57.23197555541992
      ],
      "min": [
        -57.890377044677734,
        -6.2938995361328125,
        -58.653846740722656
      ],
      "type": "VEC3"
    },
    {
      "bufferView": 2,
      "byteOffset": 1008,
      "componentType": 5126,
      "count": 84,
      "max": [
        1.0,
        1.0,
        1.0
      ],
      "min": [
        -1.0,
        -1.0,
        -1.0
      ],
      "type": "VEC3"
    },
    {
      "bufferView": 1,
      "componentType": 5126,
      "count": 84,
      "max": [
        0.65625,
        1.0
      ],
      "min": [
        0.3437499701976776,
        -7.450580596923828e-08
      ],
      "type": "VEC2"
    },
    {
      "bufferView": 0,
      "componentType": 5125,
      "count": 240,
      "type": "SCALAR"
    },
    {
      "bufferView": 2,
      "byteOffset": 2016,
      "componentType": 5126,
      "count": 9657,
      "max": [
        82.5418701171875,
        40.317474365234375,
        81.94618225097656
      ],
      "min": [
        -81.80735778808594,
        -2.9693424701690674,
        -82.3162841796875
      ],
      "type": "VEC3"
    },
    {
      "bufferView": 2,
      "byteOffset": 117900,
      "componentType": 5126,
      "count": 9657,
      "max": [
        0.9995396137237549,
        1.0,
        1.0
      ],
      "min": [
        -0.9995290637016296,
        -1.0,
        -1.0
      ],
      "type": "VEC3"
    },
    {
      "bufferView": 1,
      "byteOffset": 672,
      "componentType": 5126,
      "count": 9657,
      "max": [
        0.875,
        1.0
      ],
      "min": [
        0.125,
        0.0
      ],
      "type": "VEC2"
    },
    {
      "bufferView": 0,
      "byteOffset": 960,
      "componentType": 5125,
      "count": 16152,
      "type": "SCALAR"
    },
    {
      "bufferView": 2,
      "byteOffset": 233784,
      "componentType": 5126,
      "count": 24,
      "max": [
        -45.94076919555664,
        -0.6133183836936951,
        -25.841598510742188
      ],
      "min": [
        -58.91197204589844,
        -0.922698974609375,
        -35.82380676269531
      ],
      "type": "VEC3"
    },
    {
      "bufferView": 2,
      "byteOffset": 234072,
      "componentType": 5126,
      "count": 24,
      "max": [
        0.8657019734382629,
        1.0,
        0.8828624486923218
      ],
      "min": [
        -0.8657021522521973,
        -1.0,
        -0.8474569916725159
      ],
      "type": "VEC3"
    },
    {
      "bufferView": 1,
      "byteOffset": 77928,
      "componentType": 5126,
      "count": 24,
      "max": [
        0.875,
        1.0
      ],
      "min": [
        0.125,
        0.0
      ],
      "type": "VEC2"
    },
    {
      "bufferView": 0,
      "byteOffset": 65568,
      "componentType": 5125,
      "count": 36,
      "type": "SCALAR"
    },
    {
      "bufferView": 2,
      "byteOffset": 234360,
      "componentType": 5126,
      "count": 7372,
      "max": [
        80.58870697021484,
        14.831066131591797,
        80.00259399414063
      ],
      "min": [
        -79.85433959960938,
        -2.9262137413024902,
        -80.37091064453125
      ],
      "type": "VEC3"
    },
    {
      "bufferView": 2,
      "byteOffset": 322824,
      "componentType": 5126,
      "count": 7372,
      "max": [
        1.0,
        1.0,
        1.0
      ],
      "min": [
        -1.0,
        -1.0,
        -1.0
      ],
      "type": "VEC3"
    },
    {
      "bufferView": 1,
      "byteOffset": 78120,
      "componentType": 5126,
      "count": 7372,
      "max": [
        0.875,
        1.0
      ],
      "min": [
        0.125,
        0.0
      ],
      "type": "VEC2"
    },
    {
      "bufferView": 0,
      "byteOffset": 65712,
      "componentType": 5125,
      "count": 11772,
      "type": "SCALAR"
    },
    {
      "bufferView": 2,
      "byteOffset": 411288,
      "componentType": 5126,
      "count": 65532,
      "max": [
        78.05823516845703,
        22.072277069091797,
        78.80968475341797
      ],
      "min": [
        -79.07171630859375,
        -0.7776984572410583,
        -78.40472412109375
      ],
      "type": "VEC3"
    },
    {
      "bufferView": 2,
      "byteOffset": 1197672,
      "componentType": 5126,
      "count": 65532,
      "max": [
        0.9999921321868896,
        1.0,
        1.0
      ],
      "min": [
        -0.9999921321868896,
        -1.0,
        -1.0
      ],
      "type": "VEC3"
    },
    {
      "bufferView": 1,
      "byteOffset": 137096,
      "componentType": 5126,
      "count": 65532,
      "max": [
        0.875,
        1.0
      ],
      "min": [
        0.125,
        0.0
      ],
      "type": "VEC2"
    },
    {
      "bufferView": 0,
      "byteOffset": 112800,
      "componentType": 5125,
      "count": 117966,
      "type": "SCALAR"
    },
    {
      "bufferView": 2,
      "byteOffset": 1984056,
      "componentType": 5126,
      "count": 20508,
      "max": [
        79.80628967285156,
        22.072277069091797,
        79.20992279052734
      ],
      "min": [
        -78.84878540039063,
        5.423516273498535,
        -79.58175659179688
      ],
      "type": "VEC3"
    },
    {
      "bufferView": 2,
      "byteOffset": 2230152,
      "componentType": 5126,
      "count": 20508,
      "max": [
        0.9999921321868896,
        1.0,
        1.0
      ],
      "min": [
        -0.9999921321868896,
        -1.0,
        -1.0
      ],
      "type": "VEC3"
    },
    {
      "bufferView": 1,
      "byteOffset": 661352,
      "componentType": 5126,
      "count": 20508,
      "max": [
        0.875,
        1.0
      ],
      "min": [
        0.125,
        0.0
      ],
      "type": "VEC2"
    },
    {
      "bufferView": 0,
      "byteOffset": 584664,
      "componentType": 5125,
      "count": 36906,
      "type": "SCALAR"
    },
    {
      "bufferView": 2,
      "byteOffset": 2476248,
      "componentType": 5126,
      "count": 65532,
      "max": [
        69.18590545654297,
        16.36748695373535,
        68.80624389648438
      ],
      "min": [
        -68.4777603149414,
        -1.0656180381774902,
        -69.17477416992188
      ],
      "type": "VEC3"
    },
    {
      "bufferView": 2,
      "byteOffset": 3262632,
      "componentType": 5126,
      "count": 65532,
      "max": [
        0.9999826550483704,
        1.0,
        1.0
      ],
      "min": [
        -0.9999828338623047,
        -1.0,
        -1.0
      ],
      "type": "VEC3"
    },
    {
      "bufferView": 1,
      "byteOffset": 825416,
      "componentType": 5126,
      "count": 65532,
      "max": [
        0.65625,
        1.0
      ],
      "min": [
        0.3437499701976776,
        -7.450580596923828e-08
      ],
      "type": "VEC2"
    },
    {
      "bufferView": 0,
      "byteOffset": 732288,
      "componentType": 5125,
      "count": 187230,
      "type": "SCALAR"
    },
    {
      "bufferView": 2,
      "byteOffset": 4049016,
      "componentType": 5126,
      "count": 65532,
      "max": [
        69.18590545654297,
        16.36748695373535,
        67.79170227050781
      ],
      "min": [
        -68.47570037841797,
        -1.0656180381774902,
        -69.17477416992188
      ],
      "type": "VEC3"
    },
    {
      "bufferView": 2,
      "byteOffset": 4835400,
      "componentType": 5126,
      "count": 65532,
      "max": [
        1.0,
        1.0,
        1.0
      ],
      "min": [
        -1.0,
        -1.0,
        -1.0
      ],
      "type": "VEC3"
    },
    {
      "bufferView": 1,
      "byteOffset": 1349672,
      "componentType": 5126,
      "count": 65532,
      "max": [
        0.65625,
        1.0
      ],
      "min": [
        0.3437499701976776,
        -7.450580596923828e-08
      ],
      "type": "VEC2"
    },
    {
      "bufferView": 0,
      "byteOffset": 1481208,
      "componentType": 5125,
      "count": 187227,
      "type": "SCALAR"
    },
    {
      "bufferView": 2,
      "byteOffset": 5621784,
      "componentType": 5126,
      "count": 4853,
      "max": [
        59.362648010253906,
        16.36748695373535,
        68.80624389648438
      ],
      "min": [
        -64.65263366699219,
        -0.8956542015075684,
        -27.02508544921875
      ],
      "type": "VEC3"
    },
    {
      "bufferView": 2,
      "byteOffset": 5680020,
      "componentType": 5126,
      "count": 4853,
      "max": [
        0.9999945163726807,
        1.0,
        1.0
      ],
      "min": [
        -0.9999991655349731,
        -1.0,
        -0.9999995827674866
      ],
      "type": "VEC3"
    },
    {
      "bufferView": 1,
      "byteOffset": 1873928,
      "componentType": 5126,
      "count": 4853,
      "max": [
        0.6249997615814209,
        0.6884398460388184
      ],
      "min": [
        0.375,
        0.3125
      ],
      "type": "VEC2"
    },
    {
      "bufferView": 0,
      "byteOffset": 2230116,
      "componentType": 5125,
      "count": 13863,
      "type": "SCALAR"
    }
  ],
  "asset": {
    "extras": {
      "author": "POLYCOUNT.3D (https://sketchfab.com/kichujoy10)",
      "license": "CC-BY-4.0 (http://creativecommons.org/licenses/by/4.0/)",
      "source": "https://sketchfab.com/3d-models/round-stadium-cricket-football-stage-33a57f4a8a4c4bddb2f3cf204cea0f95",
      "title": "Round Stadium /cricket / football /stage"
    },
    "generator": "Sketchfab-12.68.0",
    "version": "2.0"
  },
  "bufferViews": [
    {
      "buffer": 0,
      "byteLength": 2285568,
      "name": "floatBufferViews",
      "target": 34963
    },
    {
      "buffer": 0,
      "byteLength": 1912752,
      "byteOffset": 2285568,
      "byteStride": 8,
      "name": "floatBufferViews",
      "target": 34962
    },
    {
      "buffer": 0,
      "byteLength": 5738256,
      "byteOffset": 4198320,
      "byteStride": 12,
      "name": "floatBufferViews",
      "target": 34962
    }
  ],
  "buffers": [
    {
      "byteLength": 9936576,
      "uri": "scene.bin"
    }
  ],
  "extensionsRequired": [
    "KHR_materials_pbrSpecularGlossiness"
  ],
  "extensionsUsed": [
    "KHR_materials_pbrSpecularGlossiness"
  ],
  "materials": [
    {
      "doubleSided": true,
      "extensions": {
        "KHR_materials_pbrSpecularGlossiness": {
          "diffuseFactor": [
            0.027439074143127056,
            0.2316472727800366,
            0.0,
            1.0
          ],
          "glossinessFactor": 0.0,
          "specularFactor": [
            0.4573855112276549,
            0.4573855112276549,
            0.4573855112276549
          ]
        }
      },
      "name": "blinn3"
    },
    {
      "doubleSided": true,
      "extensions": {
        "KHR_materials_pbrSpecularGlossiness": {
          "diffuseFactor": [
            0.09789999999999999,
            0.2335888612273087,
            0.31229999999999997,
            1.0
          ],
          "glossinessFactor": 0.4,
          "specularFactor": [
            0.1601455961533449,
            0.1601455961533449,
            0.1601455961533449
          ]
        }
      },
      "name": "lambert5"
    },
    {
      "doubleSided": true,
      "extensions": {
        "KHR_materials_pbrSpecularGlossiness": {
          "diffuseFactor": [
            0.5,
            0.5,
            0.5,
            1.0
          ],
          "glossinessFactor": 0.4,
          "specularFactor": [
            0.0,
            0.0,
            0.0
          ]
        }
      },
      "name": "lambert2"
    },
    {
      "doubleSided": true,
      "extensions": {
        "KHR_materials_pbrSpecularGlossiness": {
          "diffuseFactor": [
            0.131,
            0.1498,
            0.1806,
            1.0
          ],
          "glossinessFactor": 0.07925161837505172,
          "specularFactor": [
            0.0,
            0.0,
            0.0
          ]
        }
      },
      "name": "blinn4"
    },
    {
      "doubleSided": true,
      "extensions": {
        "KHR_materials_pbrSpecularGlossiness": {
          "diffuseFactor": [
            0.5204561107782317,
            0.4474826706935561,
            0.0,
            1.0
          ],
          "glossinessFactor": 0.4,
          "specularFactor": [
            0.0,
            0.0,
            0.0
          ]
        }
      },
      "name": "lambert3"
    },
    {
      "doubleSided": true,
      "extensions": {
        "KHR_materials_pbrSpecularGlossiness": {
          "diffuseFactor": [
            0.0,
            0.0,
            0.0,
            1.0
          ],
          "glossinessFactor": 0.4,
          "specularFactor": [
            0.5241128391014795,
            0.5241128391014795,
            0.5241128391014795
          ]
        }
      },
      "name": "lambert4"
    }
  ],
  "meshes": [
    {
      "name": "polySurface5740_blinn3_0",
      "primitives": [
        {
          "attributes": {
            "NORMAL": 1,
            "POSITION": 0,
            "TEXCOORD_0": 2
          },
          "indices": 3,
          "material": 0,
          "mode": 4
        }
      ]
    },
    {
      "name": "polySurface5661_lambert5_0",
      "primitives": [
        {
          "attributes": {
            "NORMAL": 5,
            "POSITION": 4,
            "TEXCOORD_0": 6
          },
          "indices": 7,
          "material": 1,
          "mode": 4
        }
      ]
    },
    {
      "name": "polySurface6992_lambert2_0",
      "primitives": [
        {
          "attributes": {
            "NORMAL": 9,
            "POSITION": 8,
            "TEXCOORD_0": 10
          },
          "indices": 11,
          "material": 2,
          "mode": 4
        }
      ]
    },
    {
      "name": "polySurface6992_blinn4_0",
      "primitives": [
        {
          "attributes": {
            "NORMAL": 13,
            "POSITION": 12,
            "TEXCOORD_0": 14
          },
          "indices": 15,
          "material": 3,
          "mode": 4
        }
      ]
    },
    {
      "name": "polySurface4059_lambert3_0",
      "primitives": [
        {
          "attributes": {
            "NORMAL": 17,
            "POSITION": 16,
            "TEXCOORD_0": 18
          },
          "indices": 19,
          "material": 4,
          "mode": 4
        }
      ]
    },
    {
      "name": "polySurface4059_lambert3_0",
      "primitives": [
        {
          "attributes": {
            "NORMAL": 21,
            "POSITION": 20,
            "TEXCOORD_0": 22
          },
          "indices": 23,
          "material": 4,
          "mode": 4
        }
      ]
    },
    {
      "name": "polySurface3535_lambert4_0",
      "primitives": [
        {
          "attributes": {
            "NORMAL": 25,
            "POSITION": 24,
            "TEXCOORD_0": 26
          },
          "indices": 27,
          "material": 5,
          "mode": 4
        }
      ]
    },
    {
      "name": "polySurface3535_lambert4_0",
      "primitives": [
        {
          "attributes": {
            "NORMAL": 29,
            "POSITION": 28,
            "TEXCOORD_0": 30
          },
          "indices": 31,
          "material": 5,
          "mode": 4
        }
      ]
    },
    {
      "name": "polySurface3535_lambert4_0",
      "primitives": [
        {
          "attributes": {
            "NORMAL": 33,
            "POSITION": 32,
            "TEXCOORD_0": 34
          },
          "indices": 35,
          "material": 5,
          "mode": 4
        }
      ]
    }
  ],
  "nodes": [
    {
      "children": [
        1
      ],
      "matrix": [
        1.0,
        0.0,
        0.0,
        0.0,
        0.0,
        2.220446049250313e-16,
        -1.0,
        0.0,
        0.0,
        1.0,
        2.220446049250313e-16,
        0.0,
        0.0,
        0.0,
        0.0,
        1.0
      ],
      "name": "Sketchfab_model"
    },
    {
      "children": [
        2
      ],
      "matrix": [
        1.0,
        0.0,
        0.0,
        0.0,
        0.0,
        0.0,
        1.0,
        0.0,
        0.0,
        -1.0,
        0.0,
        0.0,
        0.0,
        0.0,
        0.0,
        1.0
      ],
      "name": "00fd8129c2d943b7b824cbf033067add.fbx"
    },
    {
      "children": [
        3,
        6,
        8,
        11,
        14
      ],
      "name": "RootNode"
    },
    {
      "children": [
        4
      ],
      "name": "polySurface2871"
    },
    {
      "children": [
        5
      ],
      "name": "polySurface5740"
    },
    {
      "mesh": 0,
      "name": "polySurface5740_blinn3_0"
    },
    {
      "children": [
        7
      ],
      "name": "polySurface5661"
    },
    {
      "mesh": 1,
      "name": "polySurface5661_lambert5_0"
    },
    {
      "children": [
        9,
        10
      ],
      "name": "polySurface6992"
    },
    {
      "mesh": 2,
      "name": "polySurface6992_lambert2_0"
    },
    {
      "mesh": 3,
      "name": "polySurface6992_blinn4_0"
    },
    {
      "children": [
        12,
        13
      ],
      "name": "polySurface4059"
    },
    {
      "mesh": 4,
      "name": "polySurface4059_lambert3_0"
    },
    {
      "mesh": 5,
      "name": "polySurface4059_lambert3_0"
    },
    {
      "children": [
        15,
        16,
        17
      ],
      "name": "polySurface3535"
    },
    {
      "mesh": 6,
      "name": "polySurface3535_lambert4_0"
    },
    {
      "mesh": 7,
      "name": "polySurface3535_lambert4_0"
    },
    {
      "mesh": 8,
      "name": "polySurface3535_lambert4_0"
    }
  ],
  "scene": 0,
  "scenes": [
    {
      "name": "Sketchfab_Scene",
      "nodes": [
        0
      ]
    }
  ]
}
